<svg xmlns="http://www.w3.org/2000/svg" viewBox="0 0 100 100" width="100%" height="100%">
  <rect width="100" height="100" rx="20" fill="#ea5532" />
  <!-- Coffee Cup -->
  <path d="M25,50 h40 v15 a20,20 0 0,1 -20,20 h0 a20,20 0 0,1 -20,-20 v-15 z" fill="#ffffff"/>
  <path d="M65,55 h10 a8,8 0 0,1 8,8 v0 a8,8 0 0,1 -8,8 h-10" fill="none" stroke="#ffffff" stroke-width="8"/>
  <path d="M25,50 h40" stroke="#ffc107" stroke-width="4" stroke-linecap="round"/>
  <!-- Musical Note Steam 1 -->
  <path d="M35,38 v-15 c0,-5 5,-5 10,-5" fill="none" stroke="#ffc107" stroke-width="6" stroke-linecap="round"/>
  <circle cx="30" cy="38" r="7" fill="#ffc107"/>
  <!-- Musical Note Steam 2 -->
  <path d="M55,30 v-10 c0,-5 5,-5 10,-5" fill="none" stroke="#ffc107" stroke-width="6" stroke-linecap="round"/>
  <circle cx="50" cy="30" r="7" fill="#ffc107"/>
</svg>